<?xml version="1.0" standalone="no"?>
<svg viewBox="0 0 200 200" xmlns="http://www.w3.org/2000/svg">
  <path fill="#F1C21B" d="M37.7,-72C44.4,-61.3,42.5,-42.4,50.1,-29C57.7,-15.6,74.8,-7.8,81.3,3.8C87.9,15.4,83.9,30.8,72,36.6C60,42.5,40.2,38.8,26.8,45C13.5,51.2,6.8,67.3,-1.7,70.3C-10.2,73.3,-20.5,63.3,-32.2,56.2C-44,49.1,-57.3,44.9,-64.6,36C-71.9,27.2,-73.1,13.6,-73.4,-0.1C-73.6,-13.9,-72.8,-27.7,-65.2,-36C-57.6,-44.3,-43.1,-46.9,-31.1,-54.5C-19.1,-62.2,-9.5,-74.8,3,-79.9C15.5,-85.1,30.9,-82.7,37.7,-72Z" transform="translate(100 100)" />
</svg>
