<?xml version="1.0" standalone="no"?>
<svg viewBox="0 0 200 200" xmlns="http://www.w3.org/2000/svg">
    <path fill="#F1C21B" d="M44.7,-66.9C57.7,-61.2,67.8,-48.4,76.3,-33.7C84.7,-19,91.6,-2.4,85.1,9.1C78.6,20.7,58.7,27.2,45.3,35.1C31.9,43,25,52.4,15.5,57.1C6,61.9,-6.1,62.1,-18.8,60.2C-31.5,58.3,-44.8,54.3,-56.8,46.1C-68.9,37.9,-79.6,25.4,-84.5,10.4C-89.3,-4.6,-88.3,-22.2,-78.5,-32.6C-68.7,-43,-50.2,-46.1,-35.6,-51.1C-21.1,-56.1,-10.6,-62.9,2.7,-67.1C15.9,-71.2,31.7,-72.6,44.7,-66.9Z" transform="translate(100 100)" />
</svg>
